<mxfile host="app.diagrams.net" modified="2020-08-02T01:08:38.615Z" agent="5.0 (Macintosh; Intel Mac OS X 10_15_5) AppleWebKit/537.36 (KHTML, like Gecko) Chrome/84.0.4147.89 Safari/537.36" etag="RQXX55PJsGEHqzL79WlO" version="13.5.8" type="github">
  <diagram id="kgpKYQtTHZ0yAKxKKP6v" name="Page-1">
    <mxGraphModel dx="965" dy="524" grid="1" gridSize="10" guides="1" tooltips="1" connect="1" arrows="1" fold="1" page="1" pageScale="1" pageWidth="850" pageHeight="1100" math="0" shadow="0">
      <root>
        <mxCell id="0" />
        <mxCell id="1" parent="0" />
        <mxCell id="idBkp9USo3cd0LLDNxzj-5" style="edgeStyle=orthogonalEdgeStyle;rounded=0;orthogonalLoop=1;jettySize=auto;html=1;exitX=0.5;exitY=1;exitDx=0;exitDy=0;entryX=0.5;entryY=0;entryDx=0;entryDy=0;fillColor=#008a00;strokeColor=#005700;strokeWidth=2;" edge="1" parent="1" source="idBkp9USo3cd0LLDNxzj-2" target="idBkp9USo3cd0LLDNxzj-4">
          <mxGeometry relative="1" as="geometry">
            <mxPoint x="135" y="340" as="targetPoint" />
          </mxGeometry>
        </mxCell>
        <mxCell id="idBkp9USo3cd0LLDNxzj-2" value="&lt;b&gt;&lt;font style=&quot;font-size: 14px&quot;&gt;Super Class&lt;/font&gt;&lt;/b&gt;:&lt;br&gt;USGS_Gage(USGS_id)" style="rounded=0;whiteSpace=wrap;html=1;strokeWidth=2;fillColor=#d5e8d4;strokeColor=#82b366;" vertex="1" parent="1">
          <mxGeometry x="40" y="190" width="190" height="100" as="geometry" />
        </mxCell>
        <mxCell id="idBkp9USo3cd0LLDNxzj-4" value="&lt;b&gt;&lt;font style=&quot;font-size: 14px&quot;&gt;Child Class&lt;/font&gt;&lt;/b&gt;:&lt;br&gt;USGS_Gage_DataRetriever()" style="rounded=0;whiteSpace=wrap;html=1;strokeWidth=2;strokeColor=#82b366;fillColor=#d5e8d4;" vertex="1" parent="1">
          <mxGeometry x="40" y="545" width="190" height="100" as="geometry" />
        </mxCell>
        <mxCell id="idBkp9USo3cd0LLDNxzj-30" value="" style="strokeWidth=2;html=1;shape=mxgraph.flowchart.annotation_2;align=left;labelPosition=right;pointerEvents=1;fillColor=#008a00;strokeColor=#005700;fontColor=#ffffff;" vertex="1" parent="1">
          <mxGeometry x="230" y="178.75" width="100" height="122.5" as="geometry" />
        </mxCell>
        <mxCell id="idBkp9USo3cd0LLDNxzj-61" value="&lt;b style=&quot;font-size: 16px;&quot;&gt;Methods&lt;/b&gt;" style="swimlane;html=1;fontStyle=0;childLayout=stackLayout;horizontal=1;startSize=26;fillColor=#dae8fc;horizontalStack=0;resizeParent=1;resizeLast=0;collapsible=1;marginBottom=0;swimlaneFillColor=#ffffff;align=center;rounded=1;shadow=0;comic=0;labelBackgroundColor=none;strokeWidth=1;fontFamily=Times New Roman;fontSize=16;arcSize=15;strokeColor=#6c8ebf;" vertex="1" parent="1">
          <mxGeometry x="330" y="250" width="470" height="106" as="geometry" />
        </mxCell>
        <mxCell id="idBkp9USo3cd0LLDNxzj-62" value="&lt;b style=&quot;font-size: 13px;&quot;&gt;getVarsMetaData()&lt;/b&gt;: &lt;br style=&quot;font-size: 13px;&quot;&gt;&amp;nbsp; &amp;nbsp; &amp;nbsp; &amp;nbsp; save variable names, start/end dates to vars_info, return a pandas dataframe" style="text;html=1;strokeColor=none;fillColor=none;spacingLeft=4;spacingRight=4;whiteSpace=wrap;overflow=hidden;rotatable=0;points=[[0,0.5],[1,0.5]];portConstraint=eastwest;arcSize=15;fontSize=13;fontFamily=Times New Roman;" vertex="1" parent="idBkp9USo3cd0LLDNxzj-61">
          <mxGeometry y="26" width="470" height="40" as="geometry" />
        </mxCell>
        <mxCell id="idBkp9USo3cd0LLDNxzj-63" value="&lt;b style=&quot;font-size: 13px;&quot;&gt;getGeoMetaData()&lt;/b&gt;: &lt;br style=&quot;font-size: 13px;&quot;&gt;&amp;nbsp; &amp;nbsp; &amp;nbsp; &amp;nbsp; save gage&#39;s county, state, and coordinates to geo_info, return a dictionary" style="text;html=1;strokeColor=none;fillColor=none;spacingLeft=4;spacingRight=4;whiteSpace=wrap;overflow=hidden;rotatable=0;points=[[0,0.5],[1,0.5]];portConstraint=eastwest;arcSize=15;fontFamily=Times New Roman;fontSize=13;" vertex="1" parent="idBkp9USo3cd0LLDNxzj-61">
          <mxGeometry y="66" width="470" height="40" as="geometry" />
        </mxCell>
        <mxCell id="idBkp9USo3cd0LLDNxzj-65" value="" style="strokeWidth=2;html=1;shape=mxgraph.flowchart.annotation_2;align=left;labelPosition=right;pointerEvents=1;fillColor=#008a00;strokeColor=#005700;fontColor=#ffffff;" vertex="1" parent="1">
          <mxGeometry x="230" y="460" width="100" height="270" as="geometry" />
        </mxCell>
        <mxCell id="idBkp9USo3cd0LLDNxzj-56" value="&lt;b style=&quot;font-size: 16px;&quot;&gt;Attributes&lt;/b&gt;" style="swimlane;html=1;fontStyle=0;childLayout=stackLayout;horizontal=1;startSize=26;fillColor=#f8cecc;horizontalStack=0;resizeParent=1;resizeLast=0;collapsible=1;marginBottom=0;swimlaneFillColor=#ffffff;align=center;rounded=1;shadow=0;comic=0;labelBackgroundColor=none;strokeWidth=1;fontFamily=Times New Roman;fontSize=16;arcSize=15;strokeColor=#b85450;" vertex="1" parent="1">
          <mxGeometry x="330" y="120" width="470" height="110" as="geometry" />
        </mxCell>
        <mxCell id="idBkp9USo3cd0LLDNxzj-57" value="&lt;b style=&quot;font-size: 13px&quot;&gt;id&lt;/b&gt;: &lt;u&gt;&lt;i&gt;required&amp;nbsp;input parameter&lt;/i&gt;&lt;/u&gt; USGS Gage ID, string" style="text;html=1;strokeColor=none;fillColor=none;spacingLeft=4;spacingRight=4;whiteSpace=wrap;overflow=hidden;rotatable=0;points=[[0,0.5],[1,0.5]];portConstraint=eastwest;arcSize=15;fontFamily=Times New Roman;fontSize=13;" vertex="1" parent="idBkp9USo3cd0LLDNxzj-56">
          <mxGeometry y="26" width="470" height="26" as="geometry" />
        </mxCell>
        <mxCell id="idBkp9USo3cd0LLDNxzj-58" value="&lt;b style=&quot;font-size: 13px;&quot;&gt;vars_info&lt;/b&gt;: variables information, dictionary" style="text;html=1;strokeColor=none;fillColor=none;spacingLeft=4;spacingRight=4;whiteSpace=wrap;overflow=hidden;rotatable=0;points=[[0,0.5],[1,0.5]];portConstraint=eastwest;arcSize=15;fontFamily=Times New Roman;fontSize=13;" vertex="1" parent="idBkp9USo3cd0LLDNxzj-56">
          <mxGeometry y="52" width="470" height="26" as="geometry" />
        </mxCell>
        <mxCell id="idBkp9USo3cd0LLDNxzj-59" value="&lt;b style=&quot;font-size: 13px;&quot;&gt;geo_info&lt;/b&gt;: gage location info, dictionary" style="text;html=1;strokeColor=none;fillColor=none;spacingLeft=4;spacingRight=4;whiteSpace=wrap;overflow=hidden;rotatable=0;points=[[0,0.5],[1,0.5]];portConstraint=eastwest;arcSize=15;fontFamily=Times New Roman;fontSize=13;" vertex="1" parent="idBkp9USo3cd0LLDNxzj-56">
          <mxGeometry y="78" width="470" height="26" as="geometry" />
        </mxCell>
        <mxCell id="idBkp9USo3cd0LLDNxzj-66" value="&lt;b style=&quot;font-size: 16px;&quot;&gt;Attributes&lt;/b&gt;" style="swimlane;html=1;fontStyle=0;childLayout=stackLayout;horizontal=1;startSize=26;fillColor=#f8cecc;horizontalStack=0;resizeParent=1;resizeLast=0;collapsible=1;marginBottom=0;swimlaneFillColor=#ffffff;align=center;rounded=1;shadow=0;comic=0;labelBackgroundColor=none;strokeWidth=1;fontFamily=Times New Roman;fontSize=16;arcSize=15;strokeColor=#b85450;" vertex="1" parent="1">
          <mxGeometry x="330" y="370" width="470" height="160" as="geometry" />
        </mxCell>
        <mxCell id="idBkp9USo3cd0LLDNxzj-67" value="&lt;b style=&quot;font-size: 13px&quot;&gt;ismetric&lt;/b&gt;: &lt;i&gt;&lt;u&gt;optional&amp;nbsp;&lt;span style=&quot;font-size: 13px&quot;&gt;&lt;span style=&quot;font-size: 13px&quot;&gt;input parameter&lt;/span&gt;&lt;/span&gt;&lt;/u&gt;&lt;/i&gt; if save data in metric unit, Boolean, default True&amp;nbsp;&amp;nbsp;" style="text;html=1;strokeColor=none;fillColor=none;spacingLeft=4;spacingRight=4;whiteSpace=wrap;overflow=hidden;rotatable=0;points=[[0,0.5],[1,0.5]];portConstraint=eastwest;arcSize=15;fontFamily=Times New Roman;fontSize=13;" vertex="1" parent="idBkp9USo3cd0LLDNxzj-66">
          <mxGeometry y="26" width="470" height="26" as="geometry" />
        </mxCell>
        <mxCell id="idBkp9USo3cd0LLDNxzj-68" value="&lt;b style=&quot;font-size: 13px;&quot;&gt;data&lt;/b&gt;: time-series of daily discharge data, pandas DataFrame" style="text;html=1;strokeColor=none;fillColor=none;spacingLeft=4;spacingRight=4;whiteSpace=wrap;overflow=hidden;rotatable=0;points=[[0,0.5],[1,0.5]];portConstraint=eastwest;arcSize=15;fontFamily=Times New Roman;fontSize=13;" vertex="1" parent="idBkp9USo3cd0LLDNxzj-66">
          <mxGeometry y="52" width="470" height="26" as="geometry" />
        </mxCell>
        <mxCell id="idBkp9USo3cd0LLDNxzj-69" value="&lt;b style=&quot;font-size: 13px&quot;&gt;autoDates&lt;/b&gt;:&amp;nbsp;&lt;i&gt;&lt;u&gt;optional&amp;nbsp;input parameter&lt;/u&gt;&lt;/i&gt;&amp;nbsp;if use the metadata period, Boolean, default True" style="text;html=1;strokeColor=none;fillColor=none;spacingLeft=4;spacingRight=4;whiteSpace=wrap;overflow=hidden;rotatable=0;points=[[0,0.5],[1,0.5]];portConstraint=eastwest;arcSize=15;fontFamily=Times New Roman;fontSize=13;" vertex="1" parent="idBkp9USo3cd0LLDNxzj-66">
          <mxGeometry y="78" width="470" height="26" as="geometry" />
        </mxCell>
        <mxCell id="idBkp9USo3cd0LLDNxzj-72" value="&lt;b style=&quot;font-size: 13px&quot;&gt;startdate&lt;/b&gt;:&amp;nbsp;&lt;i&gt;&lt;u&gt;optional&amp;nbsp;input parameter&lt;/u&gt;&lt;/i&gt;&lt;i style=&quot;font-size: 13px&quot;&gt;&amp;nbsp;&lt;/i&gt;start date to download data, str, &#39;YYYY-MM-DD&#39;" style="text;html=1;strokeColor=none;fillColor=none;spacingLeft=4;spacingRight=4;whiteSpace=wrap;overflow=hidden;rotatable=0;points=[[0,0.5],[1,0.5]];portConstraint=eastwest;arcSize=15;fontFamily=Times New Roman;fontSize=13;" vertex="1" parent="idBkp9USo3cd0LLDNxzj-66">
          <mxGeometry y="104" width="470" height="26" as="geometry" />
        </mxCell>
        <mxCell id="idBkp9USo3cd0LLDNxzj-73" value="&lt;b style=&quot;font-size: 13px&quot;&gt;enddate&lt;/b&gt;:&amp;nbsp;&lt;i&gt;&lt;u&gt;optional&amp;nbsp;input parameter&lt;/u&gt;&lt;/i&gt;&lt;i style=&quot;font-size: 13px&quot;&gt;&amp;nbsp;&lt;/i&gt;end date to download data, str, &#39;YYYY-MM-DD&#39;" style="text;html=1;strokeColor=none;fillColor=none;spacingLeft=4;spacingRight=4;whiteSpace=wrap;overflow=hidden;rotatable=0;points=[[0,0.5],[1,0.5]];portConstraint=eastwest;arcSize=15;fontFamily=Times New Roman;fontSize=13;" vertex="1" parent="idBkp9USo3cd0LLDNxzj-66">
          <mxGeometry y="130" width="470" height="26" as="geometry" />
        </mxCell>
        <mxCell id="idBkp9USo3cd0LLDNxzj-74" value="&lt;b style=&quot;font-size: 16px;&quot;&gt;Methods&lt;/b&gt;" style="swimlane;html=1;fontStyle=0;childLayout=stackLayout;horizontal=1;startSize=26;fillColor=#dae8fc;horizontalStack=0;resizeParent=1;resizeLast=0;collapsible=1;marginBottom=0;swimlaneFillColor=#ffffff;align=center;rounded=1;shadow=0;comic=0;labelBackgroundColor=none;strokeWidth=1;fontFamily=Times New Roman;fontSize=16;arcSize=15;strokeColor=#6c8ebf;" vertex="1" parent="1">
          <mxGeometry x="330" y="550" width="470" height="330" as="geometry" />
        </mxCell>
        <mxCell id="idBkp9USo3cd0LLDNxzj-75" value="&lt;b style=&quot;font-size: 13px;&quot;&gt;getDailyDischarge(drop=True)&lt;/b&gt;: &lt;br style=&quot;font-size: 13px;&quot;&gt;&amp;nbsp; &amp;nbsp; &amp;nbsp; &amp;nbsp; download data, drop no data value (&amp;lt;0), return a pandas dataframe" style="text;html=1;strokeColor=none;fillColor=none;spacingLeft=4;spacingRight=4;whiteSpace=wrap;overflow=hidden;rotatable=0;points=[[0,0.5],[1,0.5]];portConstraint=eastwest;arcSize=15;fontSize=13;fontFamily=Times New Roman;" vertex="1" parent="idBkp9USo3cd0LLDNxzj-74">
          <mxGeometry y="26" width="470" height="40" as="geometry" />
        </mxCell>
        <mxCell id="idBkp9USo3cd0LLDNxzj-78" value="&lt;b style=&quot;font-size: 13px;&quot;&gt;getStatistics():&amp;nbsp;&lt;br style=&quot;font-size: 13px;&quot;&gt;&lt;/b&gt;&amp;nbsp; &amp;nbsp; &amp;nbsp; &amp;nbsp; get min, median, max, mean, and std of the data, return a dictionary" style="text;html=1;strokeColor=none;fillColor=none;spacingLeft=4;spacingRight=4;whiteSpace=wrap;overflow=hidden;rotatable=0;points=[[0,0.5],[1,0.5]];portConstraint=eastwest;arcSize=15;fontSize=13;fontFamily=Times New Roman;" vertex="1" parent="idBkp9USo3cd0LLDNxzj-74">
          <mxGeometry y="66" width="470" height="40" as="geometry" />
        </mxCell>
        <mxCell id="idBkp9USo3cd0LLDNxzj-79" value="&lt;b style=&quot;font-size: 13px;&quot;&gt;getUnit():&amp;nbsp;&lt;br style=&quot;font-size: 13px;&quot;&gt;&lt;/b&gt;&amp;nbsp; &amp;nbsp; &amp;nbsp; &amp;nbsp; return the unit of discharge cubic feet/second or cubic meter/second" style="text;html=1;strokeColor=none;fillColor=none;spacingLeft=4;spacingRight=4;whiteSpace=wrap;overflow=hidden;rotatable=0;points=[[0,0.5],[1,0.5]];portConstraint=eastwest;arcSize=15;fontSize=13;fontFamily=Times New Roman;" vertex="1" parent="idBkp9USo3cd0LLDNxzj-74">
          <mxGeometry y="106" width="470" height="40" as="geometry" />
        </mxCell>
        <mxCell id="idBkp9USo3cd0LLDNxzj-80" value="&lt;b style=&quot;font-size: 13px;&quot;&gt;plotTimeSeries(savefig=path):&amp;nbsp;&lt;br style=&quot;font-size: 13px;&quot;&gt;&lt;/b&gt;&amp;nbsp; &amp;nbsp; &amp;nbsp; &amp;nbsp; plot discharge time-series, can save to a path (optional)" style="text;html=1;strokeColor=none;fillColor=none;spacingLeft=4;spacingRight=4;whiteSpace=wrap;overflow=hidden;rotatable=0;points=[[0,0.5],[1,0.5]];portConstraint=eastwest;arcSize=15;fontSize=13;fontFamily=Times New Roman;" vertex="1" parent="idBkp9USo3cd0LLDNxzj-74">
          <mxGeometry y="146" width="470" height="40" as="geometry" />
        </mxCell>
        <mxCell id="idBkp9USo3cd0LLDNxzj-81" value="&lt;b style=&quot;font-size: 13px;&quot;&gt;findLargestEvents(top_x):&amp;nbsp;&lt;br style=&quot;font-size: 13px;&quot;&gt;&lt;/b&gt;&amp;nbsp; &amp;nbsp; &amp;nbsp; &amp;nbsp; return a dataframe with largest X events in history (top_x = X)&amp;nbsp;" style="text;html=1;strokeColor=none;fillColor=none;spacingLeft=4;spacingRight=4;whiteSpace=wrap;overflow=hidden;rotatable=0;points=[[0,0.5],[1,0.5]];portConstraint=eastwest;arcSize=15;fontSize=13;fontFamily=Times New Roman;" vertex="1" parent="idBkp9USo3cd0LLDNxzj-74">
          <mxGeometry y="186" width="470" height="40" as="geometry" />
        </mxCell>
        <mxCell id="idBkp9USo3cd0LLDNxzj-82" value="&lt;b style=&quot;font-size: 13px&quot;&gt;trendTest(time_scale, least_records, target_alpha, plot):&amp;nbsp;&lt;br style=&quot;font-size: 13px&quot;&gt;&lt;/b&gt;&amp;nbsp; &amp;nbsp; &amp;nbsp; &amp;nbsp; perform Mann-Kendall test on data to detect trend within the define time&lt;br style=&quot;font-size: 13px&quot;&gt;&amp;nbsp; &amp;nbsp; &amp;nbsp; &amp;nbsp; &lt;i style=&quot;font-size: 13px&quot;&gt;&lt;u style=&quot;font-size: 13px&quot;&gt;time_scale&lt;/u&gt;&lt;/i&gt;: &quot;M&quot; (monthly) or &quot;Y&quot; (yearly) to detect trend at define scale&lt;br style=&quot;font-size: 13px&quot;&gt;&amp;nbsp; &amp;nbsp; &amp;nbsp; &amp;nbsp; &lt;i style=&quot;font-size: 13px&quot;&gt;&lt;u style=&quot;font-size: 13px&quot;&gt;least_records&lt;/u&gt;&lt;/i&gt;: least months or years to perform the test, number&lt;br style=&quot;font-size: 13px&quot;&gt;&amp;nbsp; &amp;nbsp; &amp;nbsp; &amp;nbsp; &lt;i style=&quot;font-size: 13px&quot;&gt;&lt;u style=&quot;font-size: 13px&quot;&gt;target_alpha&lt;/u&gt;&lt;/i&gt;: significant level of the trend, 0.05 by default&lt;br style=&quot;font-size: 13px&quot;&gt;&amp;nbsp; &amp;nbsp; &amp;nbsp; &amp;nbsp; &lt;i style=&quot;font-size: 13px&quot;&gt;&lt;u style=&quot;font-size: 13px&quot;&gt;plot&lt;/u&gt;&lt;/i&gt;: if plot the resampled data with the trend line, Boolean, False by default&lt;br style=&quot;font-size: 13px&quot;&gt;&amp;nbsp; &amp;nbsp; &amp;nbsp; &amp;nbsp;" style="text;html=1;strokeColor=none;fillColor=none;spacingLeft=4;spacingRight=4;whiteSpace=wrap;overflow=hidden;rotatable=0;points=[[0,0.5],[1,0.5]];portConstraint=eastwest;arcSize=15;fontSize=13;fontFamily=Times New Roman;" vertex="1" parent="idBkp9USo3cd0LLDNxzj-74">
          <mxGeometry y="226" width="470" height="100" as="geometry" />
        </mxCell>
      </root>
    </mxGraphModel>
  </diagram>
</mxfile>
